# xmcd
#
# Track frame offsets: 
#        150
#        24622
#        44326
#        63228
#        85422
#        110700
#        133942
#        153489
#        177195
#        207521
#        237211
#        259965
#        287307
#        310036
#        334686
#
# Disc length: 4710 seconds
#
# Revision: 0
# Processed by: cddbd v1.5.2PL0 Copyright (c) Steve Scherf et al.
# Submitted via: ExactAudioCopy v1.1
#
DISCID=d712640f
DTITLE=Glenn Jones - Take It From Me (Expanded Edition)
DYEAR=2014
DGENRE=R&B
TTITLE0=Stay
TTITLE1=Set The Night On Fire
TTITLE2=Love Will Show Us How
TTITLE3=Be My Lady
TTITLE4=Giving Myself To You
TTITLE5=All Work No Play
TTITLE6=Dangerous
TTITLE7=Take It From Me
TTITLE8=Talk Me Into It (Extended Dance Mix)
TTITLE9=Giving Myself To You (Extended East Coast Version)
TTITLE10=Giving Myself To You (West Coast Version)
TTITLE11=Giving Myself To You (Instrumental)
TTITLE12=Set The Night On Fire (Extended Remix Version)
TTITLE13=Stay (TV Track)
TTITLE14=Stay (Edited Version)
EXTD=
EXTT0=
EXTT1=
EXTT2=
EXTT3=
EXTT4=
EXTT5=
EXTT6=
EXTT7=
EXTT8=
EXTT9=
EXTT10=
EXTT11=
EXTT12=
EXTT13=
EXTT14=
PLAYORDER=
